<mxfile host="app.diagrams.net" modified="2024-02-20T23:43:45.985Z" agent="Mozilla/5.0 (Windows NT 10.0; Win64; x64) AppleWebKit/537.36 (KHTML, like Gecko) Chrome/121.0.0.0 Safari/537.36" etag="oNAOCiJ8oBezdKqwXMbr" version="23.1.5" type="device">
  <diagram name="Página-1" id="ZH1kdxz9z0fsBSxzDrQj">
    <mxGraphModel dx="1434" dy="780" grid="1" gridSize="10" guides="1" tooltips="1" connect="1" arrows="1" fold="1" page="1" pageScale="1" pageWidth="827" pageHeight="1169" math="0" shadow="0">
      <root>
        <mxCell id="0" />
        <mxCell id="1" parent="0" />
        <mxCell id="4MQx4Kkva2FY0ev1gNNY-1" value="CURSO" style="rounded=1;whiteSpace=wrap;html=1;absoluteArcSize=1;arcSize=14;strokeWidth=2;fillColor=#fff2cc;strokeColor=#d6b656;" parent="1" vertex="1">
          <mxGeometry x="490" y="90" width="200" height="100" as="geometry" />
        </mxCell>
        <mxCell id="OrCNdKichRRENG-tHnL5-2" style="edgeStyle=orthogonalEdgeStyle;rounded=0;orthogonalLoop=1;jettySize=auto;html=1;exitX=1;exitY=0.5;exitDx=0;exitDy=0;entryX=0;entryY=0.5;entryDx=0;entryDy=0;endArrow=none;endFill=0;" edge="1" parent="1" source="4MQx4Kkva2FY0ev1gNNY-2" target="OrCNdKichRRENG-tHnL5-1">
          <mxGeometry relative="1" as="geometry" />
        </mxCell>
        <mxCell id="OrCNdKichRRENG-tHnL5-3" value="N" style="edgeLabel;html=1;align=center;verticalAlign=middle;resizable=0;points=[];" vertex="1" connectable="0" parent="OrCNdKichRRENG-tHnL5-2">
          <mxGeometry x="-0.0333" y="-1" relative="1" as="geometry">
            <mxPoint as="offset" />
          </mxGeometry>
        </mxCell>
        <mxCell id="4MQx4Kkva2FY0ev1gNNY-2" value="ALUNO" style="rounded=1;whiteSpace=wrap;html=1;absoluteArcSize=1;arcSize=14;strokeWidth=2;fillColor=#fff2cc;strokeColor=#d6b656;" parent="1" vertex="1">
          <mxGeometry x="90" y="90" width="200" height="100" as="geometry" />
        </mxCell>
        <mxCell id="OrCNdKichRRENG-tHnL5-15" style="edgeStyle=orthogonalEdgeStyle;rounded=0;orthogonalLoop=1;jettySize=auto;html=1;exitX=1;exitY=0.5;exitDx=0;exitDy=0;entryX=0;entryY=0.5;entryDx=0;entryDy=0;endArrow=none;endFill=0;" edge="1" parent="1" source="4MQx4Kkva2FY0ev1gNNY-6" target="OrCNdKichRRENG-tHnL5-14">
          <mxGeometry relative="1" as="geometry" />
        </mxCell>
        <mxCell id="OrCNdKichRRENG-tHnL5-17" value="N" style="edgeLabel;html=1;align=center;verticalAlign=middle;resizable=0;points=[];" vertex="1" connectable="0" parent="OrCNdKichRRENG-tHnL5-15">
          <mxGeometry x="-0.2593" y="1" relative="1" as="geometry">
            <mxPoint as="offset" />
          </mxGeometry>
        </mxCell>
        <mxCell id="4MQx4Kkva2FY0ev1gNNY-6" value="PROFESSOR" style="rounded=1;whiteSpace=wrap;html=1;absoluteArcSize=1;arcSize=14;strokeWidth=2;fillColor=#fff2cc;strokeColor=#d6b656;" parent="1" vertex="1">
          <mxGeometry x="80" y="360" width="200" height="100" as="geometry" />
        </mxCell>
        <mxCell id="4MQx4Kkva2FY0ev1gNNY-7" value="DISCIPLINA" style="rounded=1;whiteSpace=wrap;html=1;absoluteArcSize=1;arcSize=14;strokeWidth=2;fillColor=#fff2cc;strokeColor=#d6b656;" parent="1" vertex="1">
          <mxGeometry x="490" y="360" width="200" height="100" as="geometry" />
        </mxCell>
        <mxCell id="OrCNdKichRRENG-tHnL5-4" style="edgeStyle=orthogonalEdgeStyle;rounded=0;orthogonalLoop=1;jettySize=auto;html=1;exitX=1;exitY=0.5;exitDx=0;exitDy=0;entryX=0;entryY=0.5;entryDx=0;entryDy=0;endArrow=none;endFill=0;" edge="1" parent="1" source="OrCNdKichRRENG-tHnL5-1" target="4MQx4Kkva2FY0ev1gNNY-1">
          <mxGeometry relative="1" as="geometry" />
        </mxCell>
        <mxCell id="OrCNdKichRRENG-tHnL5-5" value="N" style="edgeLabel;html=1;align=center;verticalAlign=middle;resizable=0;points=[];" vertex="1" connectable="0" parent="OrCNdKichRRENG-tHnL5-4">
          <mxGeometry x="-0.0333" relative="1" as="geometry">
            <mxPoint as="offset" />
          </mxGeometry>
        </mxCell>
        <mxCell id="OrCNdKichRRENG-tHnL5-1" value="Matrícula" style="rhombus;whiteSpace=wrap;html=1;fillColor=#dae8fc;strokeColor=#6c8ebf;" vertex="1" parent="1">
          <mxGeometry x="350" y="100" width="80" height="80" as="geometry" />
        </mxCell>
        <mxCell id="OrCNdKichRRENG-tHnL5-9" style="edgeStyle=orthogonalEdgeStyle;rounded=0;orthogonalLoop=1;jettySize=auto;html=1;exitX=0.5;exitY=0;exitDx=0;exitDy=0;entryX=0.5;entryY=1;entryDx=0;entryDy=0;endArrow=none;endFill=0;" edge="1" parent="1" source="OrCNdKichRRENG-tHnL5-8" target="4MQx4Kkva2FY0ev1gNNY-1">
          <mxGeometry relative="1" as="geometry" />
        </mxCell>
        <mxCell id="OrCNdKichRRENG-tHnL5-11" value="N" style="edgeLabel;html=1;align=center;verticalAlign=middle;resizable=0;points=[];" vertex="1" connectable="0" parent="OrCNdKichRRENG-tHnL5-9">
          <mxGeometry x="0.1" y="2" relative="1" as="geometry">
            <mxPoint as="offset" />
          </mxGeometry>
        </mxCell>
        <mxCell id="OrCNdKichRRENG-tHnL5-10" style="edgeStyle=orthogonalEdgeStyle;rounded=0;orthogonalLoop=1;jettySize=auto;html=1;exitX=0.5;exitY=1;exitDx=0;exitDy=0;entryX=0.5;entryY=0;entryDx=0;entryDy=0;endArrow=none;endFill=0;" edge="1" parent="1" source="OrCNdKichRRENG-tHnL5-8" target="4MQx4Kkva2FY0ev1gNNY-7">
          <mxGeometry relative="1" as="geometry" />
        </mxCell>
        <mxCell id="OrCNdKichRRENG-tHnL5-13" value="N" style="edgeLabel;html=1;align=center;verticalAlign=middle;resizable=0;points=[];" vertex="1" connectable="0" parent="OrCNdKichRRENG-tHnL5-10">
          <mxGeometry y="-1" relative="1" as="geometry">
            <mxPoint as="offset" />
          </mxGeometry>
        </mxCell>
        <mxCell id="OrCNdKichRRENG-tHnL5-8" value="Composto" style="rhombus;whiteSpace=wrap;html=1;fillColor=#dae8fc;strokeColor=#6c8ebf;" vertex="1" parent="1">
          <mxGeometry x="550" y="230" width="80" height="80" as="geometry" />
        </mxCell>
        <mxCell id="OrCNdKichRRENG-tHnL5-16" style="edgeStyle=orthogonalEdgeStyle;rounded=0;orthogonalLoop=1;jettySize=auto;html=1;exitX=1;exitY=0.5;exitDx=0;exitDy=0;entryX=0;entryY=0.5;entryDx=0;entryDy=0;endArrow=classic;endFill=1;" edge="1" parent="1" source="OrCNdKichRRENG-tHnL5-14" target="4MQx4Kkva2FY0ev1gNNY-7">
          <mxGeometry relative="1" as="geometry" />
        </mxCell>
        <mxCell id="OrCNdKichRRENG-tHnL5-18" value="N" style="edgeLabel;html=1;align=center;verticalAlign=middle;resizable=0;points=[];" vertex="1" connectable="0" parent="OrCNdKichRRENG-tHnL5-16">
          <mxGeometry x="-0.1579" y="3" relative="1" as="geometry">
            <mxPoint as="offset" />
          </mxGeometry>
        </mxCell>
        <mxCell id="OrCNdKichRRENG-tHnL5-14" value="Leciona" style="rhombus;whiteSpace=wrap;html=1;fillColor=#dae8fc;strokeColor=#6c8ebf;" vertex="1" parent="1">
          <mxGeometry x="334" y="370" width="80" height="80" as="geometry" />
        </mxCell>
      </root>
    </mxGraphModel>
  </diagram>
</mxfile>
